<svg xmlns="http://www.w3.org/2000/svg" viewBox="0 0 21.8 28.16">
  <defs>
    <style>
      .e4400e24-ee7e-4172-822b-d44055eb99ea {
        fill: #fff;
      }
    </style>
  </defs>
  <g id="a3c838fb-1621-4e31-8d1b-df4acf6dff70" data-name="Слой 2">
    <g id="e961617c-f46d-462a-95cd-b9b0b6661d3a" data-name="Слой 1">
      <path class="e4400e24-ee7e-4172-822b-d44055eb99ea" d="M3.31,16.29a.56.56,0,0,0,.81-.41c.08-.28.25-1,.33-1.3a.78.78,0,0,0-.23-.9,4.67,4.67,0,0,1-1.07-3.17,7.66,7.66,0,0,1,8-7.75c4.34,0,6.73,2.65,6.73,6.2,0,4.66-2.07,8.6-5.13,8.6a2.5,2.5,0,0,1-2.55-3.11c.48-2,1.42-4.27,1.42-5.75A2.16,2.16,0,0,0,9.41,6.28c-1.73,0-3.12,1.79-3.12,4.18A6.17,6.17,0,0,0,6.81,13L4.73,21.84A18,18,0,0,0,4.68,28a.21.21,0,0,0,.38.09A17.22,17.22,0,0,0,8,22.78c.2-.71,1.14-4.44,1.14-4.44a4.64,4.64,0,0,0,4,2c5.21,0,8.73-4.74,8.73-11.08C21.8,4.47,17.74,0,11.56,0,3.88,0,0,5.51,0,10.11,0,12.89,1.05,15.36,3.31,16.29Z"/>
    </g>
  </g>
</svg>
