<?xml version="1.0" encoding="utf-8"?>
<!-- Generator: Adobe Illustrator 24.1.2, SVG Export Plug-In . SVG Version: 6.00 Build 0)  -->
<svg version="1.1" id="Capa_1" xmlns="http://www.w3.org/2000/svg" xmlns:xlink="http://www.w3.org/1999/xlink" x="0px" y="0px"
	 viewBox="0 0 512 512" style="enable-background:new 0 0 512 512;" xml:space="preserve">
<style type="text/css">
	.st0{fill:#FFCC00;}
</style>
<g transform="translate(-1)">
	<g>
		<g>
			<path class="st0" d="M241.6,285.6c-6.5,5.1-13.3,9.8-20.4,14c-6.3,3.7-12.3,7.9-18.1,12.3c-13.5,10.2-21.7,25.9-22.3,42.8
				c0.4,40.2,54.9,66.8,71.5,74l0.1,0c5.2,0.4,10.5,0.7,15.8,0.7c18.8,0,37.5-3,55.4-8.8c19.2-12.9,48.1-39.3,37.8-77.5
				c-1.4-5.5-3.4-10.8-5.9-15.8c-0.2-0.4-0.4-0.8-0.6-1.3c-3.3,4.4-7.5,8-12.3,10.7c-9.2,4.9-19.4,7.4-29.7,7.3
				c-5.3,0-10.5-0.8-15.6-2.2c-7-2-15.7-5.4-17.6-10.9c-1-2.8-0.6-5.9,1.1-8.4c11.9-17.3,22.4-34.4,20.9-52.6
				c-0.3-3.8-0.9-7.5-1.9-11.1c-4.8-17.1-14.8-32.3-28.8-43.4c0.5,10.5-0.3,20.9-2.5,31.2C264.1,262.3,254.6,276,241.6,285.6z"/>
			<path class="st0" d="M166.7,194.5c-3.1,11.8-9.9,22.3-19.3,30l-1,1c-7.9,8.1-14.5,17.3-19.5,27.4c-8,15.3-12.2,32.4-12.3,49.7
				c0,47.2,31.4,88.4,77.7,110.2c-17.7-14.2-28.6-35.2-29.9-57.8c0.5-22.5,11.2-43.5,29-57.1c6.4-5,13-9.5,20-13.7
				c6.5-3.8,12.7-8.1,18.6-12.7c9.9-7.2,17.2-17.4,20.7-29.1c2-10.1,2.6-20.4,1.9-30.7c-0.1-4.6-0.2-9.2-0.1-13.8
				c0.2-5,4.3-9,9.3-8.9c2.6,0,5.1,1.3,6.8,3.3c0.8,0.5,1.8,0.9,2.5,1.3c0.9,0.4,1.5,0.8,1.9,1c21.8,13.6,37.6,35,44.4,59.7
				c1.2,4.6,2,9.3,2.4,14c0.3,20.1-6,39.8-18.1,55.8c0.3,0.1,0.6,0.2,0.8,0.3c10.5,2.7,21.6,1.5,31.2-3.5c2.7-1.5,5.1-3.6,6.9-6.1
				c1-1.7,1.8-3.5,2.2-5.4c0.5-1.6,1-3.3,1.7-4.9c0,0,0,0,0,0c1.3-3.2,4.2-5.4,7.6-5.7c3.4-0.3,6.7,1.2,8.6,4.1
				c0.6,0.7,1.5,1.7,2.4,2.6c1.3,1.4,2.4,2.7,2.7,3.1c2.3,3.3,4.4,6.8,6.2,10.5c3.1,6.2,5.5,12.7,7.3,19.4c5.3,19.3,2.8,39.9-7,57.4
				c3.5-2.7,6.9-5.5,10.2-8.4c23.9-21.6,38-52,38.9-84.2c0.4-7.1,0.3-14.2-0.1-21.3c-0.8-30.9-9-61.1-23.9-88.1
				c-18-27.6-39.4-52.8-63.6-75.1c-23.4-23.5-36.6-52.4-35.5-77.5c0.5-12.3,4.8-24.1,12.2-33.8c-0.5-0.2-1-0.4-1.6-0.5
				c-4.1-1.4-7.7-2.7-8.7-3c-16.6-4.6-34.1-5.1-51-1.6c-20.1,4.1-37.6,16.4-48.3,33.9c-12.8,23.6-15.8,51.4-8.2,77.2
				c0.8,3.1-0.1,6.3-2.2,8.6c-2.2,2.3-5.4,3.3-8.5,2.7c-38.3-7.9-60.2,2.5-72,13.1c7.3,1.4,14.5,3.4,21.5,5.9
				C156.4,154.3,170.3,174.2,166.7,194.5z"/>
			<path class="st0" d="M17.4,457.6c-0.6,0-1.2,0.1-1.7,0.1l-0.5,0.1c-3.7,0.9-7,3.1-9.1,6.3c-4.4,7.1-6,15.6-4.3,23.7
				c2.6,14.7,13.1,25.6,23.1,23.9c3.8-0.8,7.2-3.1,9.3-6.4c4.4-7.1,6-15.6,4.3-23.7C36,468.1,26.7,457.6,17.4,457.6z"/>
			<path class="st0" d="M498.9,457.9l-0.8-0.1c-0.5-0.1-1-0.1-1.5-0.1c-9.3,0-18.6,10.4-21,24.1c-1.7,8.2-0.1,16.7,4.3,23.7
				c2.1,3.3,5.5,5.6,9.3,6.4c10,1.7,20.5-9.3,23.1-23.9c1.7-8.2,0.1-16.7-4.3-23.7C505.9,461,502.6,458.7,498.9,457.9z"/>
			<path class="st0" d="M497,431.3l1.8-0.3c3.7-0.8,7-3.1,9.1-6.3c4.5-7.1,6-15.6,4.3-23.8c-2.6-14.6-13.1-25.5-23.1-23.9
				l-85.4,14.6c-2.9,3.2-5.9,6.2-9.1,9.2c-13.6,12.3-29.1,22.4-45.9,29.8c-0.4,0.2-0.8,0.4-1.2,0.5c-5.6,2.5-11.3,4.7-17.2,6.6
				c-0.6,0.3-1.2,0.5-1.9,0.6c-19.5,6.2-39.8,9.4-60.2,9.5c-29,0.1-57.8-6.3-84-18.7l-140,23.8c6.3,7.3,10.5,16.2,12.1,25.7
				c1.7,9.5,0.8,19.3-2.6,28.3l200.9-34.2c0.2,0,0.4-0.1,0.6-0.1L472,435.6c0.1,0,0.2,0,0.4-0.1l24.4-4.2
				C496.9,431.4,496.9,431.3,497,431.3z"/>
			<path class="st0" d="M137.2,396.3L24.8,377.1c-10-1.7-20.6,9.3-23.1,23.9c-1.7,8.2-0.1,16.7,4.4,23.7c2.1,3.3,5.5,5.5,9.3,6.4
				l0.1,0l1.5,0.2l22.8,3.9l119.6-20.4C151.5,409.3,144.1,403.1,137.2,396.3z"/>
			<path class="st0" d="M311.5,481.5l148.7,25.4c-6.5-17.6-3.5-37.2,7.8-52.1L311.5,481.5z"/>
		</g>
	</g>
</g>
</svg>
